#!OML:ASF G:\ViconDB\ViconDB\414\test\team2\shane.ASF
:FULLY-SPECIFIED
:DEGREES
177
root 5.81141 17.1547 -16.8731 -3.10981 2.81556 -9.19961
lowerback 8.94563 0.462946 5.55245
upperback 1.56418 1.22632 2.17009
thorax -3.32246 0.559779 -1.00942
lowerneck -22.2901 0.159468 -2.99883
upperneck 22.3157 -0.619342 7.02813
head 10.9337 0.366902 2.96725
rclavicle -3.23025e-015 2.26615e-014
rhumerus -15.2053 -2.12717 284.422
rradius 34.7634
rwrist 32.4868
rhand -33.5922 -21.5062
rfingers 7.12502
rthumb -6.78594 -51.3774
lclavicle -3.23025e-015 2.26615e-014
lhumerus -200.489 -166.38 261.103
lradius 23.6859
lwrist -19.1876
lhand -38.8719 11.3031
lfingers 7.12502
lthumb -11.8802 40.9461
rfemur 10.7888 -17.0605 15.469
rtibia 8.13999
rfoot -2.93674 -8.72732
rtoes -6.64835
lfemur 3.40628 13.1815 -4.80391
ltibia 25.7862
lfoot -23.8882 -8.65772
ltoes -8.21782
178
root 5.83121 17.1792 -16.9021 -3.35795 2.93312 -9.23837
lowerback 9.27292 0.389449 5.59629
upperback 1.58197 1.15729 2.16879
thorax -3.48915 0.521357 -1.03153
lowerneck -22.3953 0.17748 -2.87122
upperneck 22.3495 -0.619246 6.95415
head 10.9659 0.370478 2.92103
rclavicle -4.00054e-015 -7.95139e-015
rhumerus -14.4174 0.87082 283.641
rradius 36.1553
rwrist 31.7801
rhand -32.8761 -19.9385
rfingers 7.12502
rthumb -6.09461 -49.8309
lclavicle -4.00054e-015 -7.95139e-015
lhumerus -199.501 -163.924 261.912
lradius 25.8809
lwrist -17.1632
lhand -38.0926 9.99755
lfingers 7.12502
lthumb -11.1286 39.6825
rfemur 10.6677 -17.136 15.4199
rtibia 8.627
rfoot -2.6479 -8.84566
rtoes -6.32594
lfemur 3.46988 13.5369 -4.68404
ltibia 25.8226
lfoot -23.4344 -9.27001
ltoes -8.47513
179
root 5.85386 17.2017 -16.9334 -3.57022 2.98646 -9.15767
lowerback 9.51825 0.344317 5.39828
upperback 1.64595 1.09605 2.24106
thorax -3.56777 0.492734 -0.841146
lowerneck -22.4795 0.202585 -2.93904
upperneck 22.2991 -0.541718 6.89969
head 10.9578 0.393484 2.92416
rclavicle -2.22887e-014 -3.1408e-014
rhumerus -13.4626 3.18737 283.348
rradius 37.1398
rwrist 33.2474
rhand -32.3811 -16.715
rfingers 7.12502
rthumb -5.61672 -46.6206
lclavicle -2.22887e-014 -3.1408e-014
lhumerus -198.686 -160.873 262.747
lradius 28.3974
lwrist -14.8677
lhand -37.4725 8.76659
lfingers 7.12502
lthumb -10.5304 38.4828
rfemur 10.4577 -17.1314 15.2112
rtibia 9.19866
rfoot -2.43132 -8.95464
rtoes -5.4898
lfemur 3.51346 13.6881 -4.78611
ltibia 25.8409
lfoot -23.0291 -9.65263
ltoes -8.53476
180
root 5.86807 17.217 -16.956 -3.7538 3.17471 -9.20445
lowerback 9.57991 0.24419 5.191
upperback 1.71755 0.948924 2.37812
thorax -3.54114 0.424478 -0.565211
lowerneck -22.6376 0.214455 -3.08574
upperneck 22.3699 -0.478014 6.91394
head 11.0097 0.414023 2.96835
rclavicle 1.2424e-016 3.18055e-015
rhumerus -12.6431 6.17871 282.901
rradius 38.7115
rwrist 32.6613
rhand -32.3156 -14.8355
rfingers 7.12502
rthumb -5.5534 -44.7427
lclavicle 1.2424e-016 3.18055e-015
lhumerus -197.708 -159.13 263.387
lradius 30.6258
lwrist -14.3875
lhand -37.277 7.8422
lfingers 7.12502
lthumb -10.3419 37.5679
rfemur 10.2893 -17.2854 15.1843
rtibia 9.73808
rfoot -2.24826 -9.14209
rtoes -5.17325
lfemur 3.53974 13.7523 -4.71006
ltibia 25.8682
lfoot -22.7424 -10.0212
ltoes -8.55519
181
root 5.8851 17.2228 -16.9792 -3.96916 3.27542 -9.24618
lowerback 9.68439 0.201707 5.24141
upperback 1.76099 0.899949 2.2963
thorax -3.55394 0.399653 -0.673195
lowerneck -22.5415 0.218503 -2.78197
upperneck 22.2776 -0.535073 6.75832
head 10.9606 0.392719 2.84699
rclavicle -8.29926e-015 -5.1684e-015
rhumerus -11.9536 8.41432 282.466
rradius 40.2692
rwrist 33.5056
rhand -32.0531 -12.6251
rfingers 7.12502
rthumb -5.30002 -42.5388
lclavicle -8.29926e-015 -5.1684e-015
lhumerus -196.788 -156.591 263.612
lradius 33.0155
lwrist -13.6434
lhand -37.0555 6.62837
lfingers 7.12502
lthumb -10.1281 36.3646
rfemur 10.1225 -17.3401 15.1114
rtibia 10.3185
rfoot -2.18916 -9.31194
rtoes -4.87323
lfemur 3.60475 13.8567 -4.65658
ltibia 25.9089
lfoot -22.5678 -10.3103
ltoes -8.5083
182
root 5.90469 17.2288 -16.9982 -4.11679 3.27056 -9.34847
lowerback 9.62564 0.127584 5.1541
upperback 1.86238 0.789177 2.44293
thorax -3.42443 0.350395 -0.457652
lowerneck -22.6067 0.261617 -2.89225
upperneck 22.23 -0.418153 6.70539
head 10.9477 0.429766 2.86377
rclavicle -1.44119e-014 -3.18055e-014
rhumerus -11.0902 11.3845 282.267
rradius 42.1611
rwrist 33.4769
rhand -31.8857 -11.3347
rfingers 7.12502
rthumb -5.13834 -41.2524
lclavicle -1.44119e-014 -3.18055e-014
lhumerus -195.949 -154.597 263.93
lradius 35.5733
lwrist -13.1922
lhand -37.4939 6.53141
lfingers 7.12502
lthumb -10.5511 36.2466
rfemur 9.88434 -17.7685 15.0745
rtibia 10.9411
rfoot -2.13005 -9.02997
rtoes -4.52834
lfemur 3.6291 13.7069 -4.64782
ltibia 25.9562
lfoot -22.469 -10.1709
ltoes -8.57738
183
root 5.91877 17.2266 -17.0148 -4.26681 3.11575 -9.37348
lowerback 9.69733 0.130319 5.06745
upperback 1.86281 0.788627 2.43085
thorax -3.46488 0.350071 -0.422166
lowerneck -22.5717 0.296702 -2.83475
upperneck 22.2318 -0.416557 6.8041
head 10.9424 0.44778 2.89025
rclavicle -2.60905e-015 1.15295e-014
rhumerus -10.4323 14.0388 281.923
rradius 44.1485
rwrist 33.4634
rhand -31.8771 -10.7408
rfingers 7.12502
rthumb -5.13003 -40.6587
lclavicle -2.60905e-015 1.15295e-014
lhumerus -195.01 -152.932 263.868
lradius 37.8433
lwrist -14.0083
lhand -37.7009 6.49019
lfingers 7.12502
lthumb -10.7508 36.1951
rfemur 9.63677 -17.9946 15.0002
rtibia 11.5715
rfoot -2.13927 -8.76037
rtoes -4.76228
lfemur 3.75072 13.9677 -4.59221
ltibia 25.9918
lfoot -22.4549 -10.3118
ltoes -8.44846
